# AST/ASF file generated using VICON BodyLanguage
# -----------------------------------------------
:version 1.10
:name VICON
:units
  mass 1.0
  length 0.45
  angle deg
:documentation
   .ast/.asf automatically generated from VICON data using
   VICON BodyBuilder and BodyLanguage model FoxedUp or BRILLIANT.MOD
:root
   order TX TY TZ RX RY RZ
   axis XYZ
   position 0 0 0  
   orientation 0 0 0 
:bonedata
  begin
     id 1 
     name lhipjoint
     direction 0.535335 -0.74333 0.401095 
     length 2.04549 
     axis 0 0 0  XYZ
  end
  begin
     id 2 
     name lfemur
     direction 0.34202 -0.939693 0  
     length 6.95643  
     axis 0 0 20  XYZ
    dof rx ry rz
    limits (-160.0 20.0)
           (-70.0 70.0)
           (-60.0 70.0)
  end
  begin
     id 3 
     name ltibia
     direction 0.34192 -0.939729 0   
     length 5.55969   
     axis 0 0 20   XYZ
    dof rx
    limits (-10.0 170.0)
  end
  begin
     id 4 
     name lfoot
     direction 0.216943 -0.596046 0.773088   
     length 2.27918   
     axis -90 7.62852e-016 20   XYZ
    dof rx rz
    limits (-45.0 90.0)
           (-70.0 20.0)
  end
  begin
     id 5 
     name ltoes
     direction 1.53519e-011 -4.21748e-011 1   
     length 1.05562   
     axis -90 7.62852e-016 20   XYZ
    dof rx
    limits (-90.0 20.0)
  end
  begin
     id 6 
     name rhipjoint
     direction -0.576368 -0.719173 0.38806   
     length 2.1142  
     axis 0 0 0  XYZ 
  end
  begin
     id 7 
     name rfemur
     direction -0.34202 -0.939693 0   
     length 7.07928   
     axis 0 0 -20   XYZ
    dof rx ry rz
    limits (-160.0 20.0)
           (-70.0 70.0)
           (-70.0 60.0)
  end
  begin
     id 8 
     name rtibia
     direction -0.34202 -0.939693 0   
     length 5.79974   
     axis 0 0 -20   XYZ
    dof rx
    limits (-10.0 170.0)
 end
 begin
     id 9 
     name rfoot
     direction -0.189288 -0.520065 0.832888   
     length 2.42173  
     axis -90 -7.62852e-016 -20   XYZ
    dof rx rz
    limits (-45.0 90.0)
           (-20.0 70.0)
  end
  begin
     id 10 
     name rtoes
     direction -1.53574e-011 -4.21658e-011 1   
     length 1.14469   
     axis -90 -7.62852e-016 -20   XYZ
    dof rx
    limits (-90.0 20.0)
  end
  begin
     id 11 
     name lowerback
     direction -0.00135702 0.993803 0.111144   
     length 1.91308   
     axis 0 0 0   XYZ
    dof rx ry rz
    limits (-20.0 45.0)
           (-30.0 30.0)
           (-30.0 30.0)
  end
  begin
     id 12 
     name upperback
     direction -0.0056745 0.999813 0.0184631   
     length 1.9212   
     axis 0 0 0   XYZ
    dof rx ry rz
    limits (-20.0 45.0)
           (-30.0 30.0)
           (-30.0 30.0)
  end
  begin
     id 13 
     name thorax
     direction -0.00733434 0.999426 -0.0330788   
     length 1.94196   
     axis 0 0 0   XYZ
    dof rx ry rz
    limits (-20.0 45.0)
           (-30.0 30.0)
           (-30.0 30.0)
  end
  begin
     id 14 
     name lowerneck
     direction 0.0563074 0.996944 -0.0541571   
     length 2.34257   
     axis 0 0 0   XYZ
    dof rx ry rz
    limits (-20.0 45.0)
           (-30.0 30.0)
           (-30.0 30.0)
  end
  begin
     id 15 
     name upperneck
     direction -0.0544519 0.976166 -0.210085   
     length 2.32506   
     axis 0 0 0   XYZ
    dof rx ry rz
    limits (-20.0 45.0)
           (-30.0 30.0)
           (-30.0 30.0)
  end
  begin
     id 16
     name head
     direction -0.0226035 0.997615 -0.0652205  
     length 2.3648  
     axis 0 0 0   XYZ
    dof rx ry rz
    limits (-20.0 45.0)
           (-30.0 30.0)
           (-30.0 30.0)
  end
  begin
     id 17 
     name lclavicle
     direction 0.92109 0.381297 -0.0787716  
     length 4.0487  
     axis 0 0 0   XYZ
    dof ry rz
    limits (-20.0 10.0)
           (0.0 20.0)
  end
  begin
     id 18 
     name lhumerus
     direction 1 -4.48986e-011 3.56724e-027   
     length 4.94991   
     axis 180 -30 -90   XYZ
    dof rx ry rz
    limits (-60.0 90.0)
           (-90.0 90.0)
           (-90.0 90.0)
  end
  begin
     id 19
     name lradius
     direction 1 -4.48981e-011 8.62147e-027   
     length 2.7606   
     axis 180 -30 -90   XYZ
    dof rx
    limits (-10.0 170.0)
  end
  begin
     id 20
     name lwrist
     direction 1 -4.48989e-011 1.59799e-026   
     length 1.3803   
     axis -1.17785e-014 90 90   XYZ
    dof ry
    limits (-180.0 0.0)
 end
  begin
     id 21 
     name lhand
     direction 1 -4.48896e-011 3.19599e-026   
     length 0.843936   
     axis -2.03931e-014 90 90   XYZ
    dof rx rz
    limits (-90.0 90.0)
           (-45.0 45.0)
  end
  begin
     id 22 
     name lfingers
     direction 1 -4.48887e-011 6.39197e-026   
     length 0.680403   
     axis -4.07862e-014 90 90   XYZ
    dof rx
    limits (0.0 90.0)
  end
  begin
     id 23
     name lthumb
     direction 0.707107 -6.348e-011 0.707107   
     length 0.976926   
     axis -90 45 2.85299e-015   XYZ
    dof rx rz
    limits (-45.0 45.0)
           (-45.0 45.0)
  end
  begin
     id 24 
     name rclavicle
     direction -0.951104 0.307692 -0.026953   
     length 4.21801  
     axis 0 0 0   XYZ 
    dof ry rz
    limits (-10.0 20.0)
           (-20.0 0.0)
  end
  begin
     id 25 
     name rhumerus
     direction -1 -4.4896e-011 -1.8171e-018  
     length 4.32982   
     axis 180 30 90   XYZ
    dof rx ry rz
    limits (-90.0 60.0)
           (-90.0 90.0)
           (-90.0 90.0)
  end
  begin
     id 26 
     name rradius
     direction -1 -4.48959e-011 8.25165e-027   
     length 3.20057   
     axis 180 30 90   XYZ
    dof rx
    limits (-10.0 170.0)
  end
  begin
     id 27 
     name rwrist
     direction -1 -4.48997e-011 1.59799e-026   
     length 1.60029   
     axis -1.17785e-014 -90 -90   XYZ
    dof ry
    limits (-180.0 0.0)
  end
  begin
     id 28
     name rhand
     direction -1 -4.49023e-011 3.19599e-026   
     length 0.960433   
     axis -2.03931e-014 -90 -90   XYZ
    dof rx rz
    limits (-90.0 90.0)
           (-45.0 45.0)
  end
  begin
     id 29
     name rfingers
     direction -1 -4.48802e-011 6.39197e-026   
     length 0.774326   
     axis -4.07862e-014 -90 -90   XYZ
    dof rx
    limits (0.0 90.0)
  end
  begin
     id 30
     name rthumb
     direction -0.707107 -6.34876e-011 0.707107   
     length 1.11178   
     axis -90 -45 -2.85299e-015   XYZ
    dof rx rz
    limits (-45.0 45.0)
           (-45.0 45.0)
  end
:hierarchy
  begin
    root lhipjoint rhipjoint lowerback
    lhipjoint lfemur
    lfemur ltibia
    ltibia lfoot
    lfoot ltoes
    rhipjoint rfemur
    rfemur rtibia
    rtibia rfoot
    rfoot rtoes
    lowerback upperback
    upperback thorax
    thorax lowerneck lclavicle rclavicle
    lowerneck upperneck
    upperneck head
    lclavicle lhumerus
    lhumerus lradius
    lradius lwrist
    lwrist lhand lthumb
    lhand lfingers
    rclavicle rhumerus
    rhumerus rradius
    rradius rwrist
    rwrist rhand rthumb
    rhand rfingers
end

#!OML:ASF C:\KaitlinTest1\Natural Motions\Nikki\Session 2\Nikki.ASF
:FULLY-SPECIFIED
:DEGREES
402
root -13.5181 16.745 5.03466 -335.831 93.7994 -347.805
lowerback -15.1086 -0.917028 2.88798
upperback -5.94063 -1.26875 -0.875545
thorax 2.08551 -0.540089 -2.75334
lowerneck -11.7778 -14.4691 -7.01832
upperneck 4.46734 40.9311 5.5724
head 165.269 57.6196 -39.981
rclavicle -1.00883e-014 -6.75868e-015
rhumerus -55.2333 -38.1457 -54.9168
rradius 14.0425
rwrist 28.0963
rhand -38.6896 -0.467443
rfingers 7.12502
rthumb -11.7043 -30.1205
lclavicle -1.00883e-014 -6.75868e-015
lhumerus -59.7733 30.1896 55.3728
lradius 20.9153
lwrist -36.9381
lhand -33.7259 6.89152
lfingers 7.12502
lthumb -6.91495 36.7586
rfemur -11.0642 -20.0288 21.1453
rtibia 12.6575
rfoot -11.1053 12.7988
rtoes -1.19271e-014
lfemur -17.4255 21.6089 -20.6521
ltibia 14.4946
lfoot -2.55654 -23.2659
ltoes -3.49861e-014
403
root -13.5237 16.7439 5.03791 -335.232 93.7512 -347.087
lowerback -15.0499 -0.957763 2.90734
upperback -5.93898 -1.32498 -0.873937
thorax 2.05168 -0.569499 -2.77044
lowerneck -11.6757 -14.3271 -7.10382
upperneck 4.58811 41.3536 5.68069
head 165.757 57.2534 -39.6953
rclavicle 1.36664e-015 -5.96354e-015
rhumerus -53.9978 -37.527 -56.7983
rradius 14.0513
rwrist 27.7841
rhand -38.5564 -0.559672
rfingers 7.12502
rthumb -11.5759 -30.22
lclavicle 1.36664e-015 -5.96354e-015
lhumerus -58.6241 29.8961 56.6697
lradius 20.8467
lwrist -37.1276
lhand -33.7633 6.55641
lfingers 7.12502
lthumb -6.95109 36.4223
rfemur -10.9932 -20.2464 21.1775
rtibia 12.7065
rfoot -11.1423 13.0872
rtoes -7.15625e-014
lfemur -17.204 21.2025 -20.4732
ltibia 14.4004
lfoot -2.53047 -22.8114
ltoes -5.24792e-014
404
root -13.5313 16.742 5.04199 -335.495 93.7007 -347.249
lowerback -14.9144 -0.949039 2.85231
upperback -5.98648 -1.30202 -0.838842
thorax 1.93364 -0.559383 -2.6951
lowerneck -11.4843 -14.2462 -7.36683
upperneck 4.65399 41.5298 5.6719
head 166.093 56.9751 -39.4195
rclavicle 5.73991e-015 -3.97569e-015
rhumerus -52.5751 -36.3089 -59.1718
rradius 14.3843
rwrist 26.6604
rhand -38.3525 -0.763752
rfingers 7.12502
rthumb -11.3793 -30.435
lclavicle 5.73991e-015 -3.97569e-015
lhumerus -57.7012 29.8205 57.7366
lradius 20.8391
lwrist -37.966
lhand -33.6219 6.27749
lfingers 7.12502
lthumb -6.81456 36.1478
rfemur -10.9441 -20.4737 21.1732
rtibia 12.7349
rfoot -11.1041 13.3024
rtoes -1.43125e-014
lfemur -16.9965 20.7766 -20.3631
ltibia 14.3082
lfoot -2.42749 -22.291
ltoes -1.59028e-015
405
root -13.5422 16.7439 5.04741 -335.567 93.666 -347.157
lowerback -14.6893 -0.998905 2.80544
upperback -5.9895 -1.35825 -0.858741
thorax 1.80782 -0.590785 -2.69321
lowerneck -11.3813 -14.1723 -7.38243
upperneck 4.72453 41.6948 5.72717
head 166.265 56.8255 -39.2996
rclavicle -5.04416e-015 2.5842e-015
rhumerus -51.372 -35.6523 -61.0423
rradius 14.4331
rwrist 26.2912
rhand -38.2224 -0.566416
rfingers 7.12502
rthumb -11.2538 -30.2445
lclavicle -5.04416e-015 2.5842e-015
lhumerus -56.3729 29.2595 59.3776
lradius 20.9926
lwrist -37.46
lhand -33.3754 6.56952
lfingers 7.12502
lthumb -6.57663 36.4474
rfemur -10.7934 -20.2676 21.1241
rtibia 12.7197
rfoot -11.009 13.1986
rtoes -8.50798e-014
lfemur -16.7757 20.3482 -20.2043
ltibia 14.258
lfoot -2.44724 -21.8667
ltoes -1.90833e-014
406
root -13.5488 16.74 5.05052 -335.038 93.6502 -346.462
lowerback -14.539 -1.03849 2.82466
upperback -5.97199 -1.41335 -0.848189
thorax 1.74226 -0.620949 -2.6983
lowerneck -11.2904 -14.0869 -7.44737
upperneck 4.78192 41.8508 5.75834
head 166.428 56.704 -39.184
rclavicle 1.77415e-014 4.37326e-015
rhumerus -50.0344 -34.4244 -63.3818
rradius 14.7795
rwrist 25.4295
rhand -37.8918 -0.567077
rfingers 7.12502
rthumb -10.9349 -30.2623
lclavicle 1.77415e-014 4.37326e-015
lhumerus -55.3633 29.1247 60.3924
lradius 20.9935
lwrist -38.0815
lhand -33.5202 6.11397
lfingers 7.12502
lthumb -6.71644 35.9874
rfemur -10.6079 -20.171 21.1199
rtibia 12.7246
rfoot -11.0136 13.1183
rtoes 5.64548e-014
lfemur -16.5378 20.1056 -20.0363
ltibia 14.1908
lfoot -2.43633 -21.5896
ltoes 2.8625e-014
407
root -13.5547 16.7393 5.05235 -335.223 93.6175 -346.512
lowerback -14.4144 -1.07415 2.80406
upperback -5.98666 -1.45532 -0.849699
thorax 1.65822 -0.643785 -2.69146
lowerneck -11.076 -14.0589 -7.50891
upperneck 4.77572 41.6022 5.68494
head 166.188 56.9352 -39.2245
rclavicle -4.47266e-016 -2.98177e-015
rhumerus -48.6752 -32.9021 -65.8697
rradius 15.1516
rwrist 24.0009
rhand -37.7008 -0.533163
rfingers 7.12502
rthumb -10.7507 -30.2381
lclavicle -4.47266e-016 -2.98177e-015
lhumerus -54.0792 28.3661 62.1305
lradius 21.0847
lwrist -37.3957
lhand -33.6605 5.88348
lfingers 7.12502
lthumb -6.85187 35.7526
rfemur -10.4611 -20.0899 21.0611
rtibia 12.6961
rfoot -10.9681 13.0712
rtoes 8.42847e-014
lfemur -16.3836 20.0703 -19.9926
ltibia 14.1441
lfoot -2.39729 -21.5159
ltoes 7.95139e-015
408
root -13.5625 16.737 5.055 -335.678 93.5534 -346.844
lowerback -14.2764 -1.09268 2.73427
upperback -5.98497 -1.47008 -0.833261
thorax 1.58824 -0.652212 -2.63371
lowerneck -10.9893 -13.9611 -7.68156
upperneck 4.83167 41.8267 5.70445
head 166.516 56.6846 -39.0002
rclavicle -2.79292e-014 -3.57812e-015
rhumerus -47.4477 -31.4814 -68.1286
rradius 15.6276
rwrist 22.8241
rhand -37.5015 -0.497008
rfingers 7.12502
rthumb -10.5584 -30.2118
lclavicle -2.79292e-014 -3.57812e-015
lhumerus -52.8135 27.6772 63.8134
lradius 21.1931
lwrist -36.8315
lhand -33.851 5.44536
lfingers 7.12502
lthumb -7.03571 35.3084
rfemur -10.3145 -19.8249 20.9676
rtibia 12.6765
rfoot -10.9479 12.8489
rtoes -5.725e-014
lfemur -16.267 20.1095 -19.9876
ltibia 14.1454
lfoot -2.26235 -21.5335
ltoes -2.54444e-014
409
root -13.5715 16.736 5.05675 -335.836 93.5045 -346.856
lowerback -14.0978 -1.09309 2.72916
upperback -5.98376 -1.46841 -0.836119
thorax 1.49443 -0.654244 -2.62927
lowerneck -10.8577 -13.9058 -7.8186
upperneck 4.85234 41.842 5.68391
head 166.654 56.6017 -38.8535
rclavicle -1.54804e-014 -1.59028e-015
rhumerus -46.3489 -30.1447 -70.159
rradius 16.0321
rwrist 21.8701
rhand -37.178 -0.371391
rfingers 7.12502
rthumb -10.2463 -30.1018
lclavicle -1.54804e-014 -1.59028e-015
lhumerus -51.3028 26.5323 65.8418
lradius 21.0713
lwrist -35.8397
lhand -34.0934 5.51774
lfingers 7.12502
lthumb -7.2697 35.3729
rfemur -10.1518 -19.6141 20.896
rtibia 12.6437
rfoot -10.9033 12.6677
rtoes -3.97569e-015
lfemur -16.1779 20.2951 -19.985
ltibia 14.2013
lfoot -2.26609 -21.6644
ltoes -2.38542e-014
410
root -13.5781 16.7333 5.0579 -336.538 93.3974 -347.445
lowerback -13.9692 -1.0744 2.69465
upperback -5.99334 -1.43658 -0.872145
thorax 1.41778 -0.640379 -2.63959
lowerneck -10.7278 -13.8306 -7.94095
upperneck 4.9101 41.9955 5.72058
head 166.95 56.429 -38.6493
rclavicle -1.33931e-014 -5.36719e-015
rhumerus -45.318 -28.7288 -72.2127
rradius 16.4858
rwrist 20.8316
rhand -37.0138 -0.277176
rfingers 7.12502
rthumb -10.0879 -30.0154
lclavicle -1.33931e-014 -5.36719e-015
lhumerus -50.1329 25.6994 67.3461
lradius 21.3017
lwrist -35.7391
lhand -33.9319 5.46421
lfingers 7.12502
lthumb -7.1138 35.3247
rfemur -10.0057 -19.451 20.7773
rtibia 12.5833
rfoot -10.8824 12.5989
rtoes 2.46493e-014
lfemur -16.1221 20.6324 -20.07
ltibia 14.2798
lfoot -2.37769 -21.9324
ltoes 2.38542e-014
411
root -13.6003 16.7332 5.06174 -332.231 93.3324 -343.146
lowerback -13.7849 -1.01634 2.91869
upperback -6.04891 -1.38416 -0.819409
thorax 1.2587 -0.620584 -2.69842
lowerneck -10.612 -13.7746 -8.04726
upperneck 4.91251 41.9677 5.7066
head 167.116 56.3944 -38.4899
rclavicle -2.77056e-014 -1.23246e-014
rhumerus -44.1813 -26.8171 -74.6528
rradius 17.2572
rwrist 18.8894
rhand -36.765 -0.439887
rfingers 7.12502
rthumb -9.8479 -30.1896
lclavicle -2.77056e-014 -1.23246e-014
lhumerus -48.8804 24.5968 69.0997
lradius 21.6147
lwrist -34.8554
lhand -34.0977 5.31507
lfingers 7.12502
lthumb -7.27392 35.17
rfemur -10.0742 -18.7832 21.0492
rtibia 12.4885
rfoot -10.6884 12.112
rtoes -1.44715e-013
lfemur -16.3107 20.7387 -19.841
ltibia 14.4063
lfoot -2.21179 -21.8672
ltoes -9.54166e-014
412
root -13.5984 16.7337 5.05979 -331.324 93.2342 -342.168
lowerback -13.8812 -0.979049 2.98777
upperback -5.98698 -1.35035 -0.803561
thorax 1.37594 -0.602969 -2.71904
lowerneck -10.5527 -13.7297 -8.18466
upperneck 4.89258 41.9143 5.64652
head 167.145 56.4047 -38.4165
rclavicle 1.01877e-014 1.5704e-014
rhumerus -43.3262 -25.4279 -76.346
rradius 17.7852
rwrist 18.1747
rhand -36.5958 -0.109712
rfingers 7.12502
rthumb -9.68472 -29.8671
lclavicle 1.01877e-014 1.5704e-014
lhumerus -47.7339 23.7262 70.6643
lradius 21.943
lwrist -34.0886
lhand -34.0931 5.06628
lfingers 7.12502
lthumb -7.26942 34.9214
rfemur -9.90353 -18.7508 21.0004
rtibia 12.3514
rfoot -10.6457 12.2236
rtoes -3.97569e-014
lfemur -16.2905 20.9799 -19.8294
ltibia 14.5752
lfoot -2.41006 -21.9986
ltoes -5.24792e-014
413
root -13.6039 16.7338 5.0585 -328.688 93.1544 -339.482
lowerback -13.8548 -0.930753 3.13061
upperback -5.99211 -1.30513 -0.773923
thorax 1.35598 -0.582971 -2.7616
lowerneck -10.4478 -13.6823 -8.28216
upperneck 4.90136 41.885 5.62067
head 167.177 56.4482 -38.3564
rclavicle -3.32219e-014 -5.76476e-015
rhumerus -42.4758 -23.7212 -78.2557
rradius 18.3291
rwrist 16.8671
rhand -36.6074 0.233293
rfingers 7.12502
rthumb -9.69583 -29.5235
lclavicle -3.32219e-014 -5.76476e-015
lhumerus -46.6795 22.7623 72.123
lradius 22.2017
lwrist -33.459
lhand -34.3817 4.91969
lfingers 7.12502
lthumb -7.54801 34.765
rfemur -9.82821 -18.773 21.1113
rtibia 12.1838
rfoot -10.5306 12.4011
rtoes -4.13472e-014
lfemur -16.3205 21.1249 -19.7087
ltibia 14.7438
lfoot -2.5153 -21.9839
ltoes -7.4743e-014
